*
G04 Mass Parameters ***
*
G04 Image ***
*
%INC:\DOCUMENTS AND SETTINGS\UTENTE\DESKTOP\LCSS\LCSS.SPT*%
%ICAS*%
%MOIN*%
%IPPOS*%
%ASAXBY*%
G74*%FSLAN2X34Y34*%
*
G04 Aperture Definitions ***
*
%ADD10C,0.1260*%
%ADD11R,0.0590X0.0590*%
%ADD12C,0.0551*%
%ADD13R,0.0551X0.0551*%
%ADD14C,0.0550*%
%ADD15R,0.0550X0.0550*%
%ADD16R,0.0787X0.0472*%
%ADD17R,0.0787X0.0787*%
%ADD18R,0.0472X0.0787*%
%ADD19C,0.0630*%
%ADD20C,0.1299*%
%ADD21R,0.1024X0.0590*%
%ADD22R,0.0905X0.1000*%
%ADD23R,0.0787X0.0236*%
%ADD24O,0.0700X0.0180*%
%ADD25R,0.0700X0.0180*%
%ADD26O,0.0180X0.0700*%
%ADD27R,0.0180X0.0700*%
%ADD28R,0.2200X0.2441*%
%ADD29R,0.0560X0.0866*%
%ADD30R,0.0236X0.0787*%
%ADD31O,0.0160X0.1024*%
%ADD32R,0.0160X0.1024*%
%ADD33O,0.0984X0.0240*%
%ADD34R,0.0984X0.0240*%
%ADD35R,0.1968X0.0394*%
%ADD36C,0.0500*%
%ADD37C,0.0080*%
%ADD38C,0.0100*%
%ADD39C,0.0120*%
%ADD40C,0.0500*%
%ADD41C,0.0140*%
%ADD42C,0.0140*%
%ADD43C,0.1260*%
%ADD44R,0.0590X0.0590*%
%ADD45R,0.0984X0.0590*%
%ADD46R,0.0590X0.0984*%
%ADD47C,0.0551*%
%ADD48R,0.0551X0.0551*%
%ADD49C,0.0550*%
%ADD50R,0.0550X0.0550*%
%ADD51R,0.0630X0.0630*%
%ADD52R,0.0787X0.0472*%
%ADD53R,0.0472X0.0787*%
%ADD54R,0.1024X0.0590*%
%ADD55C,0.0630*%
%ADD56C,0.1299*%
%ADD57C,0.0500*%
%ADD58C,0.0500*%
%ADD59C,0.0140*%
%ADD60C,0.1338*%
%ADD61R,0.0669X0.0669*%
%ADD62R,0.0866X0.0551*%
%ADD63R,0.0866X0.0866*%
%ADD64R,0.0551X0.0866*%
%ADD65C,0.0709*%
%ADD66C,0.1378*%
%ADD67R,0.1102X0.0669*%
%ADD68R,0.0984X0.1079*%
%ADD69R,0.0866X0.0315*%
%ADD70O,0.0779X0.0260*%
%ADD71R,0.0779X0.0260*%
%ADD72O,0.0260X0.0779*%
%ADD73R,0.0260X0.0779*%
%ADD74R,0.2283X0.2520*%
%ADD75R,0.0639X0.0945*%
%ADD76R,0.0315X0.0866*%
%ADD77O,0.0161X0.1102*%
%ADD78R,0.0161X0.1102*%
%ADD79O,0.1063X0.0319*%
%ADD80R,0.1063X0.0319*%
%ADD81R,0.2047X0.0472*%
%ADD82C,0.0550*%
%ADD83C,0.0550*%
%ADD84R,0.1063X0.0669*%
%ADD85R,0.0669X0.1063*%
%ADD86R,0.0709X0.0709*%
%ADD87R,0.0787X0.0787*%
%ADD88R,0.0905X0.1000*%
%ADD89R,0.0787X0.0236*%
%ADD90O,0.0700X0.0180*%
%ADD91R,0.0700X0.0180*%
%ADD92O,0.0180X0.0700*%
%ADD93R,0.0180X0.0700*%
%ADD94R,0.2200X0.2441*%
%ADD95R,0.0560X0.0866*%
%ADD96R,0.0236X0.0787*%
%ADD97O,0.0161X0.1024*%
%ADD98R,0.0161X0.1024*%
%ADD99O,0.0984X0.0240*%
%ADD100R,0.0984X0.0240*%
%ADD101R,0.1968X0.0394*%
*
G04 Plot Data ***
*
G54D44*
X0012862Y0014907D03*
X0013944D03*
X0017307Y0015025D03*
Y0016107D03*
X0016284Y0017307D03*
X0017366D03*
X0018329Y0012390D03*
Y0013472D03*
X0016284Y0021279D03*
X0017366D03*
X0017228Y0023285D03*
Y0022204D03*
X0016245Y0019588D03*
X0017326D03*
X0016245Y0018526D03*
X0017326D03*
X0014829Y0016245D03*
Y0015143D03*
X0006923Y0020532D03*
Y0019431D03*
X0001534Y0020414D03*
Y0019313D03*
X-0001219Y0020493D03*
X-0002321D03*
X-0002557Y0015969D03*
Y0017071D03*
X-0004366Y0012193D03*
Y0011092D03*
G54D47*
X0014710Y0007670D03*
X0013922D03*
X0013135D03*
X0012348D03*
X0011560D03*
X0010773D03*
X0009985D03*
X0009198D03*
X0008411D03*
Y-0000991D03*
X0009198D03*
X0009985D03*
X0010773D03*
X0011560D03*
X0012348D03*
X0013135D03*
X0013922D03*
X0014710D03*
X0015497D03*
X0018329Y0023505D03*
Y0022505D03*
Y0021505D03*
Y0020505D03*
Y0019505D03*
Y0018505D03*
Y0017505D03*
Y0016505D03*
Y0015505D03*
Y0014505D03*
X-0000017Y-0002399D03*
X0003281Y-0002360D03*
X0004602Y0003579D03*
X0003894D03*
X0003186D03*
X0002478D03*
X0001770D03*
X0006844Y-0001590D03*
X0008024Y-0002360D03*
X-0004445Y0014340D03*
X-0004405Y0008906D03*
X-0002911Y0008794D03*
Y0007794D03*
X0003321Y0004799D03*
X0000157Y0011367D03*
Y0010659D03*
Y0009951D03*
Y0009263D03*
X0004546Y0004799D03*
X0000118Y0014413D03*
Y0015413D03*
Y0016413D03*
Y0017413D03*
Y0018413D03*
X0007355Y0004799D03*
Y0004091D03*
Y0003383D03*
Y0002675D03*
Y0001967D03*
Y0001259D03*
Y0000551D03*
X0003225Y0006018D03*
X0002517D03*
X0001809D03*
X0009440Y0011800D03*
Y0011092D03*
Y0010384D03*
Y0009696D03*
X0015997Y0010120D03*
X0008260Y0014593D03*
Y0015301D03*
Y0016009D03*
Y0016697D03*
X0007906Y0011210D03*
Y0011918D03*
Y0012626D03*
X0004467Y-0002360D03*
X0016559Y-0002439D03*
X0015771D03*
X0014984D03*
X0014196D03*
X0013409D03*
X0012622D03*
X0011834D03*
X0011047D03*
X0010259D03*
X0017779Y0008889D03*
X0016990D03*
X0016203D03*
X0015416D03*
X0014628D03*
X0013841D03*
X0013053D03*
X0012266D03*
X0011479D03*
G54D48*
X0015497Y0007670D03*
X0018329Y0024505D03*
X0000983Y-0002399D03*
X0002281Y-0002360D03*
X0005310Y0003579D03*
X0006844Y-0000590D03*
X0009024Y-0002360D03*
X-0004445Y0015340D03*
X-0004405Y0007906D03*
X-0002911Y0009794D03*
X0002321Y0004799D03*
X0000157Y0012075D03*
X0005546Y0004799D03*
X0000118Y0013413D03*
X0007355Y0005507D03*
X0003933Y0006018D03*
X0009440Y0012508D03*
X0015997Y0011120D03*
X0008260Y0013885D03*
X0007906Y0010502D03*
X0005467Y-0002360D03*
X0017346Y-0002439D03*
X0018565Y0008889D03*
G54D52*
X0014553Y0019627D03*
Y0020414D03*
X0013413Y0014081D03*
Y0013295D03*
X0007237Y0023679D03*
Y0024465D03*
X0005369Y0018860D03*
Y0018074D03*
X0002439Y0024701D03*
Y0023915D03*
G54D53*
X0011761Y0015065D03*
X0010974D03*
X0011092Y0021201D03*
X0010305D03*
X0003579Y0019116D03*
X0002793D03*
G54D54*
X0016874Y0024387D03*
X0015419Y0024780D03*
Y0023993D03*
G54D55*
X-0000433Y0003973D03*
Y0004877D03*
X0000472Y0003973D03*
Y0004877D03*
G54D56*
X-0001495Y0006923D03*
X-0001534Y0002124D03*
G54D87*
X0013098Y0020021D03*
X0014868Y0013688D03*
X0011367Y0013609D03*
X0010699Y0019745D03*
X0005782Y0024072D03*
X0006824Y0018467D03*
X0003186Y0017661D03*
X0003894Y0024308D03*
G54D88*
X0014081Y0024426D03*
G54D89*
X0009755Y0024937D03*
Y0024426D03*
Y0023915D03*
G54D90*
X0006515Y0008045D03*
Y0008360D03*
Y0008675D03*
Y0008990D03*
Y0009305D03*
Y0009620D03*
Y0009935D03*
Y0010250D03*
Y0010880D03*
Y0011195D03*
X0001985D03*
Y0010880D03*
Y0010565D03*
Y0010250D03*
Y0009935D03*
Y0009620D03*
Y0008990D03*
Y0008675D03*
Y0008360D03*
Y0008045D03*
G54D91*
X0006515Y0010565D03*
X0001985Y0009305D03*
G54D92*
X0002990Y0007355D03*
X0003305D03*
X0003620D03*
X0003935D03*
X0004250D03*
X0004565D03*
X0004880D03*
X0005195D03*
X0005825D03*
Y0011885D03*
X0005510D03*
X0005195D03*
X0004880D03*
X0004565D03*
X0004250D03*
X0003935D03*
X0003305D03*
X0002990D03*
X0002675D03*
G54D93*
Y0007355D03*
X0005510D03*
X0003620Y0011885D03*
G54D94*
X-0002478Y0014062D03*
G54D95*
X-0003383Y0011289D03*
X-0001573D03*
G54D96*
X-0002930Y0018251D03*
X-0003304Y0019470D03*
Y0018251D03*
X-0002557D03*
Y0019470D03*
G54D97*
X0005211Y0001809D03*
X0004955D03*
X0004699D03*
X0004443D03*
X0004187D03*
X0003931D03*
X0003675D03*
X0003419D03*
X0002907D03*
X0002651D03*
X0002395D03*
X0002139D03*
Y-0000891D03*
X0002395D03*
X0002651D03*
X0002907D03*
X0003163D03*
X0003675D03*
X0003931D03*
X0004187D03*
X0004443D03*
X0004699D03*
X0004955D03*
X0005211D03*
X0005467D03*
G54D98*
Y0001809D03*
X0003163D03*
X0003419Y-0000891D03*
G54D99*
X0010699Y0018459D03*
Y0017959D03*
Y0017459D03*
Y0016959D03*
Y0016459D03*
Y0015959D03*
X0013549D03*
Y0016459D03*
Y0016959D03*
Y0017459D03*
Y0017959D03*
Y0018459D03*
Y0018959D03*
X0002911Y0022510D03*
Y0022010D03*
Y0021510D03*
Y0021010D03*
Y0020510D03*
Y0020010D03*
X0005761D03*
Y0020510D03*
Y0021010D03*
Y0021510D03*
Y0022010D03*
Y0022510D03*
Y0023010D03*
G54D100*
X0010699Y0018959D03*
X0002911Y0023010D03*
G54D101*
X0006411Y0014003D03*
X0002399D03*
M02*
