*
G04 Mass Parameters ***
*
G04 Image ***
*
%INC:\DOCUMENTS AND SETTINGS\UTENTE\DESKTOP\LCSS\LCSS.SST*%
%ICAS*%
%MOIN*%
%IPPOS*%
%ASAXBY*%
G74*%FSLAN2X34Y34*%
*
G04 Aperture Definitions ***
*
%ADD10C,0.1260*%
%ADD11R,0.0590X0.0590*%
%ADD12C,0.0551*%
%ADD13R,0.0551X0.0551*%
%ADD14C,0.0550*%
%ADD15R,0.0550X0.0550*%
%ADD16R,0.0787X0.0472*%
%ADD17R,0.0787X0.0787*%
%ADD18R,0.0472X0.0787*%
%ADD19C,0.0630*%
%ADD20C,0.1299*%
%ADD21R,0.1024X0.0590*%
%ADD22R,0.0905X0.1000*%
%ADD23R,0.0787X0.0236*%
%ADD24O,0.0700X0.0180*%
%ADD25R,0.0700X0.0180*%
%ADD26O,0.0180X0.0700*%
%ADD27R,0.0180X0.0700*%
%ADD28R,0.2200X0.2441*%
%ADD29R,0.0560X0.0866*%
%ADD30R,0.0236X0.0787*%
%ADD31O,0.0160X0.1024*%
%ADD32R,0.0160X0.1024*%
%ADD33O,0.0984X0.0240*%
%ADD34R,0.0984X0.0240*%
%ADD35R,0.1968X0.0394*%
%ADD36C,0.0500*%
%ADD37C,0.0080*%
%ADD38C,0.0100*%
%ADD39C,0.0120*%
%ADD40C,0.0500*%
%ADD41C,0.0140*%
%ADD42C,0.0140*%
%ADD43C,0.1260*%
%ADD44R,0.0590X0.0590*%
%ADD45R,0.0984X0.0590*%
%ADD46R,0.0590X0.0984*%
%ADD47C,0.0551*%
%ADD48R,0.0551X0.0551*%
%ADD49C,0.0550*%
%ADD50R,0.0550X0.0550*%
%ADD51R,0.0630X0.0630*%
%ADD52R,0.0787X0.0472*%
%ADD53R,0.0472X0.0787*%
%ADD54R,0.1024X0.0590*%
%ADD55C,0.0630*%
%ADD56C,0.1299*%
%ADD57C,0.0500*%
%ADD58C,0.0500*%
%ADD59C,0.0140*%
%ADD60C,0.1338*%
%ADD61R,0.0669X0.0669*%
%ADD62R,0.0866X0.0551*%
%ADD63R,0.0866X0.0866*%
%ADD64R,0.0551X0.0866*%
%ADD65C,0.0709*%
%ADD66C,0.1378*%
%ADD67R,0.1102X0.0669*%
%ADD68R,0.0984X0.1079*%
%ADD69R,0.0866X0.0315*%
%ADD70O,0.0779X0.0260*%
%ADD71R,0.0779X0.0260*%
%ADD72O,0.0260X0.0779*%
%ADD73R,0.0260X0.0779*%
%ADD74R,0.2283X0.2520*%
%ADD75R,0.0639X0.0945*%
%ADD76R,0.0315X0.0866*%
%ADD77O,0.0161X0.1102*%
%ADD78R,0.0161X0.1102*%
%ADD79O,0.1063X0.0319*%
%ADD80R,0.1063X0.0319*%
%ADD81R,0.2047X0.0472*%
%ADD82C,0.0550*%
%ADD83C,0.0550*%
%ADD84R,0.1063X0.0669*%
%ADD85R,0.0669X0.1063*%
%ADD86R,0.0709X0.0709*%
%ADD87R,0.0787X0.0787*%
%ADD88R,0.0905X0.1000*%
%ADD89R,0.0787X0.0236*%
%ADD90O,0.0700X0.0180*%
%ADD91R,0.0700X0.0180*%
%ADD92O,0.0180X0.0700*%
%ADD93R,0.0180X0.0700*%
%ADD94R,0.2200X0.2441*%
%ADD95R,0.0560X0.0866*%
%ADD96R,0.0236X0.0787*%
%ADD97O,0.0161X0.1024*%
%ADD98R,0.0161X0.1024*%
%ADD99O,0.0984X0.0240*%
%ADD100R,0.0984X0.0240*%
%ADD101R,0.1968X0.0394*%
%ADD102C,0.0060*%
%ADD103C,0.0083*%
%ADD104C,0.0140*%
*
G04 Plot Data ***
*
G54D37*
G01X0007098Y0012176D02*
Y0011953D01*
X0006876Y0012064D01*
Y0012120D01*
X0007209D01*
X0007098Y0011571D02*
X0007154D01*
X0007209Y0011599D01*
Y0011710D01*
X0007154Y0011738D01*
X0006876D01*
Y0011766D02*
Y0011654D01*
X0019091Y0000008D02*
X0018980D01*
X0019036D02*
Y0000341D01*
X0018980Y0000285D01*
X0018737Y0000341D02*
Y0000063D01*
X0018709Y0000008D01*
X0018542D01*
X0018514Y0000063D01*
Y0000341D01*
X0001983Y0012639D02*
X0001761D01*
X0001872Y0012861D01*
X0001928D01*
Y0012527D01*
X0001573Y0012861D02*
Y0012583D01*
X0001546Y0012527D01*
X0001379D01*
X0001351Y0012583D01*
Y0012861D01*
X0018130Y-0001640D02*
X0018352D01*
X0018130Y-0001862D01*
Y-0001918D01*
X0018157Y-0001973D01*
X0018324D01*
X0018352Y-0001918D01*
X0018734Y-0001751D02*
Y-0001695D01*
X0018706Y-0001640D01*
X0018595D01*
X0018567Y-0001695D01*
Y-0001973D01*
X0018540D02*
X0018651D01*
X0008125Y-0002714D02*
X0007958Y-0003047D01*
X0008180D01*
X0008368Y-0002714D02*
X0008479D01*
X0008423D02*
Y-0003047D01*
X0008479Y-0002991D01*
X0008917Y-0002825D02*
Y-0002769D01*
X0008889Y-0002714D01*
X0008778D01*
X0008750Y-0002769D01*
Y-0003047D01*
X0008722D02*
X0008833D01*
X-0002077Y0008767D02*
Y0008990D01*
X-0001855Y0008878D01*
Y0008823D01*
X-0002189D01*
Y0009177D02*
Y0009288D01*
Y0009233D02*
X-0001855D01*
X-0001911Y0009288D01*
X-0002077Y0009726D02*
X-0002133D01*
X-0002189Y0009698D01*
Y0009587D01*
X-0002133Y0009559D01*
X-0001855D01*
Y0009532D02*
Y0009643D01*
X0010083Y0009746D02*
X0010417Y0009579D01*
Y0009801D01*
X0010194Y0010183D02*
X0010139D01*
X0010083Y0010156D01*
Y0010044D01*
X0010139Y0010017D01*
X0010417D01*
Y0009989D02*
Y0010100D01*
X0000840Y0009775D02*
Y0009998D01*
X0001062Y0009775D01*
X0001118D01*
X0001173Y0009803D01*
Y0009970D01*
X0001118Y0009998D01*
X0000840Y0010185D02*
Y0010296D01*
Y0010241D02*
X0001173D01*
X0001118Y0010296D01*
X0000951Y0010734D02*
X0000895D01*
X0000840Y0010706D01*
Y0010595D01*
X0000895Y0010567D01*
X0001173D01*
Y0010540D02*
Y0010651D01*
X-0003610Y0015884D02*
Y0015718D01*
X-0003665Y0015690D01*
X-0003721D01*
X-0003776Y0015718D01*
Y0015884D01*
X-0003721Y0015912D01*
X-0003665D01*
X-0003443Y0015801D01*
X-0003776Y0016100D02*
Y0016211D01*
Y0016155D02*
X-0003443D01*
X-0003498Y0016211D01*
X-0003665Y0016649D02*
X-0003721D01*
X-0003776Y0016621D01*
Y0016510D01*
X-0003721Y0016482D01*
X-0003443D01*
Y0016454D02*
Y0016565D01*
X0006161Y0005431D02*
X0006050D01*
X0006106D02*
Y0005764D01*
X0006050Y0005708D01*
X0005807Y0005431D02*
X0005696D01*
X0005751D02*
Y0005764D01*
X0005696Y0005708D01*
X0005258Y0005542D02*
Y0005486D01*
X0005286Y0005431D01*
X0005397D01*
X0005425Y0005486D01*
Y0005764D01*
X0005453D02*
X0005341D01*
X0003500Y-0001967D02*
X0003444Y-0001911D01*
X0003417Y-0001856D01*
Y-0001745D01*
X0003444Y-0001689D01*
X0003500Y-0001634D01*
X0003556D01*
X0003611Y-0001689D01*
X0003639Y-0001745D01*
Y-0001856D01*
X0003611Y-0001911D01*
X0003556Y-0001967D01*
X0003500D01*
X0003229D02*
X0003007D01*
X0003229Y-0001745D01*
Y-0001689D01*
X0003201Y-0001634D01*
X0003034D01*
X0003007Y-0001689D01*
X0002624Y-0001856D02*
Y-0001911D01*
X0002652Y-0001967D01*
X0002763D01*
X0002791Y-0001911D01*
Y-0001634D01*
X0002819D02*
X0002708D01*
X0001107Y0006885D02*
X0001080Y0006830D01*
Y0006774D01*
X0001107Y0006719D01*
X0001274D01*
X0001302Y0006774D01*
Y0006830D01*
X0001274Y0006885D01*
X0001107D01*
X0001080Y0006941D01*
Y0006996D01*
X0001107Y0007052D01*
X0001274D01*
X0001302Y0006996D01*
Y0006941D01*
X0001274Y0006885D01*
X0001684Y0006941D02*
Y0006996D01*
X0001656Y0007052D01*
X0001545D01*
X0001517Y0006996D01*
Y0006719D01*
X0001490D02*
X0001601D01*
X0007561Y0015293D02*
X0007617Y0015321D01*
Y0015488D01*
X0007561Y0015516D01*
X0007450D01*
X0007394Y0015460D01*
Y0015293D01*
X0007283D01*
Y0015516D01*
X0007505Y0014911D02*
X0007561D01*
X0007617Y0014939D01*
Y0015050D01*
X0007561Y0015078D01*
X0007283D01*
Y0015106D02*
Y0014994D01*
X0000474Y-0001649D02*
X0000363D01*
X0000419D02*
Y-0001316D01*
X0000363Y-0001371D01*
X0000120Y-0001649D02*
X-0000102D01*
X0000120Y-0001427D01*
Y-0001371D01*
X0000092Y-0001316D01*
X-0000074D01*
X-0000102Y-0001371D01*
X-0000484Y-0001538D02*
Y-0001594D01*
X-0000457Y-0001649D01*
X-0000345D01*
X-0000318Y-0001594D01*
Y-0001316D01*
X-0000290D02*
X-0000401D01*
X-0000565Y0017004D02*
X-0000620Y0016948D01*
X-0000676Y0016920D01*
X-0000787D01*
X-0000842Y0016948D01*
X-0000898Y0017004D01*
Y0017059D01*
X-0000842Y0017115D01*
X-0000787Y0017143D01*
X-0000676D01*
X-0000620Y0017115D01*
X-0000565Y0017059D01*
Y0017004D01*
Y0016733D02*
Y0016622D01*
Y0016677D02*
X-0000898D01*
X-0000842Y0016622D01*
X-0000676Y0016184D02*
X-0000620D01*
X-0000565Y0016212D01*
Y0016323D01*
X-0000620Y0016350D01*
X-0000898D01*
Y0016378D02*
Y0016267D01*
X0018303Y0008115D02*
X0018414D01*
X0018359D02*
Y0007781D01*
X0018414Y0007837D01*
X0018852Y0008003D02*
Y0008059D01*
X0018824Y0008115D01*
X0018713D01*
X0018685Y0008059D01*
Y0007781D01*
X0018658D02*
X0018769D01*
X0002512Y0002730D02*
X0002679D01*
X0002707Y0002674D01*
Y0002619D01*
X0002679Y0002563D01*
X0002512D01*
X0002485Y0002619D01*
Y0002674D01*
X0002596Y0002897D01*
X0002895D02*
X0003006D01*
X0002950D02*
Y0002563D01*
X0003006Y0002619D01*
X0003443Y0002785D02*
Y0002841D01*
X0003416Y0002897D01*
X0003304D01*
X0003277Y0002841D01*
Y0002563D01*
X0003249D02*
X0003360D01*
X0007640Y-0001431D02*
X0007695Y-0001459D01*
X0007751D01*
X0007806Y-0001431D01*
Y-0001265D01*
X0007751Y-0001237D01*
X0007695D01*
X0007640Y-0001265D01*
Y-0001431D01*
X0007584Y-0001459D01*
X0007528D01*
X0007473Y-0001431D01*
Y-0001265D01*
X0007528Y-0001237D01*
X0007584D01*
X0007640Y-0001265D01*
X0007473Y-0001049D02*
Y-0000938D01*
Y-0000994D02*
X0007806D01*
X0007751Y-0000938D01*
X0007584Y-0000500D02*
X0007528D01*
X0007473Y-0000528D01*
Y-0000639D01*
X0007528Y-0000667D01*
X0007806D01*
Y-0000695D02*
Y-0000584D01*
X0005936Y-0001451D02*
X0005881Y-0001506D01*
Y-0001617D01*
X0005936Y-0001673D01*
X0005992D01*
X0006103Y-0001562D01*
X0006214Y-0001673D01*
Y-0001451D01*
X0005992Y-0001068D02*
X0005936D01*
X0005881Y-0001096D01*
Y-0001207D01*
X0005936Y-0001235D01*
X0006214D01*
Y-0001263D02*
Y-0001152D01*
X0016872Y0010131D02*
Y0009964D01*
X0016816Y0009936D01*
X0016760D01*
X0016705Y0009964D01*
Y0010131D01*
X0016760Y0010159D01*
X0016816D01*
X0017038Y0010047D01*
X0016816Y0010541D02*
X0016760D01*
X0016705Y0010513D01*
Y0010402D01*
X0016760Y0010374D01*
X0017038D01*
Y0010346D02*
Y0010457D01*
X0003440Y0005208D02*
X0003495Y0005152D01*
X0003606D01*
X0003662Y0005208D01*
Y0005263D01*
X0003551Y0005374D01*
X0003662Y0005486D01*
X0003440D01*
X0003252Y0005152D02*
X0003141D01*
X0003196D02*
Y0005486D01*
X0003141Y0005430D01*
X0002703Y0005263D02*
Y0005208D01*
X0002731Y0005152D01*
X0002842D01*
X0002870Y0005208D01*
Y0005486D01*
X0002898D02*
X0002786D01*
X-0003831Y0010323D02*
X-0003776Y0010351D01*
Y0010517D01*
X-0003831Y0010545D01*
X-0003942D01*
X-0003998Y0010490D01*
Y0010323D01*
X-0004109D01*
Y0010545D01*
X-0003776Y0010135D02*
Y0010024D01*
Y0010080D02*
X-0004109D01*
X-0004053Y0010024D01*
X-0003887Y0009586D02*
X-0003831D01*
X-0003776Y0009614D01*
Y0009725D01*
X-0003831Y0009753D01*
X-0004109D01*
Y0009781D02*
Y0009670D01*
X0006855Y0000079D02*
X0007855D01*
Y0006007D01*
X0006855D01*
Y0000079D01*
Y0006007D02*
X0006805Y0006057D01*
X0008406Y0013118D02*
X0007406D01*
Y0009952D01*
X0008406D01*
Y0013118D01*
Y0009952D02*
X0008456Y0009902D01*
X0017110Y-0001495D02*
X0008063D01*
Y0008162D01*
X0017130D01*
X0019352Y0004327D01*
Y0002301D01*
X0017110Y-0001495D01*
X0009774Y-0001939D02*
Y-0002939D01*
X0017846D01*
Y-0001939D01*
X0009774D01*
X0017846D02*
X0017896Y-0001889D01*
X0009524Y-0001860D02*
X0007524D01*
Y-0002860D01*
X0009524D01*
Y-0001860D01*
X0009574Y-0001810D01*
X-0003411Y0010294D02*
Y0007294D01*
X-0002411D01*
Y0010294D01*
X-0003411D01*
X-0003461Y0010344D01*
X0008940Y0009302D02*
X0009940D01*
Y0013058D01*
X0008940D01*
Y0009302D01*
Y0013058D02*
X0008890Y0013108D01*
X0001803Y0001209D02*
X0005803D01*
Y-0000291D01*
X0001803D01*
Y0001209D01*
X0005553Y-0000291D02*
Y0001209D01*
X-0000343Y0008870D02*
X0000657D01*
Y0012625D01*
X-0000343D01*
Y0008870D01*
Y0012625D02*
X-0000393Y0012675D01*
X-0004945Y0015840D02*
Y0013840D01*
X-0003945D01*
Y0015840D01*
X-0004945D01*
X-0004995Y0015890D01*
X0006046Y0005299D02*
X0004046D01*
Y0004299D01*
X0006046D01*
Y0005299D01*
X0006096Y0005349D01*
X0001781Y-0002860D02*
X0003781D01*
Y-0001860D01*
X0001781D01*
Y-0002860D01*
X0001731Y-0002910D01*
X0001318Y0006518D02*
Y0005518D01*
X0004483D01*
Y0006518D01*
X0001318D01*
X0004483D02*
X0004533Y0006568D01*
X0008760Y0017090D02*
X0007760D01*
Y0013335D01*
X0008760D01*
Y0017090D01*
Y0013335D02*
X0008810Y0013285D01*
X0011374Y0018959D02*
X0012874D01*
Y0019209D02*
Y0015709D01*
X0011374D01*
Y0019209D01*
X0012874D01*
X0001483Y-0001899D02*
X-0000517D01*
Y-0002899D01*
X0001483D01*
Y-0001899D01*
X0001533Y-0001849D01*
X0000618Y0012913D02*
Y0018913D01*
X-0000382D01*
Y0012913D01*
X0000618D01*
X0000668Y0012863D01*
X0010994Y0009389D02*
Y0008389D01*
X0019065D01*
Y0009389D01*
X0010994D01*
X0019065D02*
X0019115Y0009439D01*
X0005860Y0004129D02*
X0005810Y0004079D01*
Y0003079D01*
X0001337D01*
Y0004079D01*
X0005810D01*
X0006344Y-0000090D02*
Y-0002090D01*
X0007344D01*
Y-0000090D01*
X0006344D01*
X0006294Y-0000040D01*
X0005967Y-0001860D02*
X0003967D01*
Y-0002860D01*
X0005967D01*
Y-0001860D01*
X0006017Y-0001810D01*
X0015497Y0011620D02*
Y0009620D01*
X0016497D01*
Y0011620D01*
X0015497D01*
X0015447Y0011670D01*
X0001821Y0004299D02*
X0003821D01*
Y0005299D01*
X0001821D01*
Y0004299D01*
X0001771Y0004249D01*
X-0003905Y0007406D02*
Y0009406D01*
X-0004905D01*
Y0007406D01*
X-0003905D01*
X-0003855Y0007356D01*
X0003586Y0023010D02*
X0005086D01*
Y0023260D02*
Y0019760D01*
X0003586D01*
Y0023260D01*
X0005086D01*
X0017829Y0025005D02*
Y0014005D01*
X0018829D01*
Y0025005D01*
X0017829D01*
X0017779Y0025055D01*
G54D38*
G01X0019178Y0020741D02*
X0018758Y0020951D01*
Y0020671D01*
X0018828Y0020436D02*
X0018758Y0020401D01*
Y0020191D01*
X0018828Y0020156D01*
X0018898D01*
X0018968Y0020191D01*
Y0020401D01*
X0019038Y0020436D01*
X0019108D01*
X0019178Y0020401D01*
Y0020191D01*
X0019108Y0020156D01*
X0018968Y0019723D02*
Y0019933D01*
X0019038Y0019968D01*
X0019108D01*
X0019178Y0019933D01*
Y0019723D01*
X0019108Y0019688D01*
X0019038D01*
X0018758Y0019828D01*
X0018828Y0019453D02*
X0018758Y0019418D01*
Y0019208D01*
X0018828Y0019173D01*
X0018898D01*
X0018968Y0019208D01*
Y0019418D01*
X0019038Y0019453D01*
X0019108D01*
X0019178Y0019418D01*
Y0019208D01*
X0019108Y0019173D01*
Y0018626D02*
X0019178Y0018661D01*
Y0018871D01*
X0019108Y0018906D01*
X0018968D01*
X0018898Y0018836D01*
Y0018626D01*
X0018758D01*
Y0018906D01*
X0018828Y0018391D02*
X0018758Y0018356D01*
Y0018146D01*
X0018828Y0018111D01*
X0018898D01*
X0018968Y0018146D01*
Y0018356D01*
X0019038Y0018391D01*
X0019108D01*
X0019178Y0018356D01*
Y0018146D01*
X0019108Y0018111D01*
X0019038Y0017883D02*
Y0017603D01*
X0018758Y0017743D01*
Y0017813D01*
X0019178D01*
X0018828Y0017368D02*
X0018758Y0017333D01*
Y0017123D01*
X0018828Y0017088D01*
X0018898D01*
X0018968Y0017123D01*
Y0017333D01*
X0019038Y0017368D01*
X0019108D01*
X0019178Y0017333D01*
Y0017123D01*
X0019108Y0017088D01*
Y0016581D02*
X0019178Y0016651D01*
Y0016791D01*
X0019108Y0016861D01*
X0019038D01*
X0018898Y0016721D01*
X0018758Y0016861D01*
Y0016581D01*
X0018828Y0016346D02*
X0018758Y0016311D01*
Y0016101D01*
X0018828Y0016066D01*
X0018898D01*
X0018968Y0016101D01*
Y0016311D01*
X0019038Y0016346D01*
X0019108D01*
X0019178Y0016311D01*
Y0016101D01*
X0019108Y0016066D01*
X0019178Y0015720D02*
Y0015440D01*
X0018898Y0015720D01*
X0018828D01*
X0018758Y0015685D01*
Y0015475D01*
X0018828Y0015440D01*
Y0015205D02*
X0018758Y0015170D01*
Y0014960D01*
X0018828Y0014925D01*
X0018898D01*
X0018968Y0014960D01*
Y0015170D01*
X0019038Y0015205D01*
X0019108D01*
X0019178Y0015170D01*
Y0014960D01*
X0019108Y0014925D01*
X0019178Y0014745D02*
Y0014605D01*
Y0014675D02*
X0018758D01*
X0018828Y0014605D01*
Y0014300D02*
X0018758Y0014265D01*
Y0014055D01*
X0018828Y0014020D01*
X0018898D01*
X0018968Y0014055D01*
Y0014265D01*
X0019038Y0014300D01*
X0019108D01*
X0019178Y0014265D01*
Y0014055D01*
X0019108Y0014020D01*
X0006598Y0001152D02*
X0006848Y0001652D01*
X0006514D01*
X0006273Y0001486D02*
X0006023D01*
X0005981Y0001402D01*
Y0001236D01*
X0006023Y0001152D01*
X0006273D01*
X0006556Y0000734D02*
X0006806D01*
X0006848Y0000650D01*
Y0000567D01*
X0006806Y0000484D01*
X0006556D01*
X0006514Y0000567D01*
Y0000650D01*
X0006681Y0000984D01*
X0006273Y0000817D02*
X0006023D01*
X0005981Y0000734D01*
Y0000567D01*
X0006023Y0000484D01*
X0006273D01*
X0008481Y0017284D02*
X0008523Y0017200D01*
X0008773D01*
X0008814Y0017284D01*
Y0017450D01*
X0008731Y0017534D01*
X0008481D01*
Y0017700D01*
X0008814D01*
X0008239Y0017534D02*
X0007989D01*
X0007948Y0017450D01*
Y0017284D01*
X0007989Y0017200D01*
X0008239D01*
X0009409Y0015970D02*
X0009129D01*
X0009269Y0016250D01*
X0009339D01*
Y0015830D01*
X0008894Y0016110D02*
X0008684D01*
X0008649Y0016040D01*
Y0015900D01*
X0008684Y0015830D01*
X0008894D01*
X0009208Y0015192D02*
X0009278Y0015122D01*
X0009418D01*
X0009488Y0015192D01*
Y0015262D01*
X0009348Y0015402D01*
X0009488Y0015542D01*
X0009208D01*
X0008973Y0015402D02*
X0008763D01*
X0008728Y0015332D01*
Y0015192D01*
X0008763Y0015122D01*
X0008973D01*
X0007092Y0006198D02*
Y0006365D01*
Y0006282D02*
X0007592D01*
X0007508Y0006365D01*
X0008130Y0009771D02*
Y0009604D01*
Y0009688D02*
X0007630D01*
X0007714Y0009604D01*
X0016202Y0006875D02*
X0016035D01*
X0016119D02*
Y0007375D01*
X0016035Y0007292D01*
X0005792Y0008737D02*
Y0008514D01*
X0005570Y0008737D01*
X0005514D01*
X0005459Y0008709D01*
Y0008542D01*
X0005514Y0008514D01*
X0005792Y0008287D02*
Y0008176D01*
Y0008231D02*
X0005459D01*
X0005514Y0008176D01*
X0005175Y0011107D02*
X0005119Y0011163D01*
X0005008D01*
X0004952Y0011107D01*
Y0011052D01*
X0005064Y0010941D01*
X0004952Y0010829D01*
X0005175D01*
X0005402Y0011163D02*
X0005625D01*
X0005402Y0010941D01*
Y0010885D01*
X0005430Y0010829D01*
X0005597D01*
X0005625Y0010885D01*
X0002818Y0010448D02*
Y0010670D01*
X0003040Y0010559D01*
Y0010504D01*
X0002707D01*
X0002763Y0011120D02*
X0002707Y0011065D01*
Y0010954D01*
X0002763Y0010898D01*
X0002818D01*
X0002929Y0011009D01*
X0003040Y0010898D01*
Y0011120D01*
X0002176Y0007095D02*
X0002065D01*
X0002120D02*
Y0007428D01*
X0002065Y0007372D01*
X0018038Y-0002372D02*
X0018204D01*
X0018121D02*
Y-0002872D01*
X0018204Y-0002788D01*
X0009122Y-0001895D02*
Y-0001562D01*
X0008955Y-0001728D02*
X0009288D01*
X-0003017Y0010486D02*
Y0010652D01*
Y0010569D02*
X-0002517D01*
X-0002600Y0010652D01*
X0009334Y0013121D02*
Y0013288D01*
Y0013204D02*
X0009834D01*
X0009750Y0013288D01*
X-0001011Y0012256D02*
Y0012422D01*
Y0012339D02*
X-0000511D01*
X-0000594Y0012422D01*
X-0004669Y0016110D02*
Y0016277D01*
Y0016194D02*
X-0004169D01*
X-0004252Y0016277D01*
X0006120Y0005023D02*
X0006286D01*
X0006203D02*
Y0004523D01*
X0006286Y0004606D01*
X0001983Y-0001680D02*
X0001816D01*
X0001900D02*
Y-0001180D01*
X0001816Y-0001263D01*
X0004664Y0006242D02*
X0004831D01*
X0004748D02*
Y0005742D01*
X0004831Y0005826D01*
X0007580Y0013626D02*
Y0013459D01*
Y0013542D02*
X0007080D01*
X0007163Y0013459D01*
X0000427Y0007125D02*
X0000314D01*
X0000371D02*
Y0007466D01*
X0000314Y0007409D01*
X0000028D02*
X0000000Y0007466D01*
X-0000170D01*
X-0000199Y0007409D01*
Y0007352D01*
X-0000170Y0007296D01*
X0000000D01*
X0000028Y0007239D01*
Y0007182D01*
X0000000Y0007125D01*
X-0000170D01*
X-0000199Y0007182D01*
X0002622Y0015156D02*
X0002511D01*
X0002567D02*
Y0015490D01*
X0002511Y0015434D01*
X0002228Y0015156D02*
X0002061Y0015490D01*
X0002228D02*
X0002061Y0015156D01*
X0001157Y-0001680D02*
X0000990D01*
X0001074D02*
Y-0001180D01*
X0000990Y-0001263D01*
X0001326Y0013508D02*
Y0013341D01*
Y0013424D02*
X0000826D01*
X0000909Y0013341D01*
X0007553Y0016284D02*
Y0016285D01*
X0007554D01*
Y0016284D01*
X0007553D01*
X0007637Y0015784D02*
X0007470D01*
X0007553D02*
Y0016118D01*
X0007470D01*
X0007145D02*
X0006895D01*
X0006853Y0016034D01*
X0006895Y0015951D01*
X0007145D01*
X0007187Y0015868D01*
X0007145Y0015784D01*
X0006895D01*
X0006528Y0016284D02*
Y0016285D01*
X0006529D01*
Y0016284D01*
X0006528D01*
X0006612Y0015784D02*
X0006445D01*
X0006528D02*
Y0016118D01*
X0006445D01*
X0006162Y0016284D02*
Y0015784D01*
X0005912D01*
X0005870Y0015868D01*
Y0016034D01*
X0005912Y0016118D01*
X0006162D01*
X0005628Y0015784D02*
Y0016034D01*
X0005587Y0016118D01*
X0005337D01*
Y0015784D01*
X0005011Y0016284D02*
Y0016285D01*
X0005012D01*
Y0016284D01*
X0005011D01*
X0005095Y0015784D02*
X0004928D01*
X0005012D02*
Y0016118D01*
X0004928D01*
X0004645D02*
X0004478D01*
X0004437Y0016034D01*
X0004353D01*
Y0016118D02*
Y0015784D01*
X0003820D02*
Y0016284D01*
X0003778Y0015784D02*
X0004028D01*
X0004112Y0015868D01*
Y0015951D01*
X0004070Y0016034D01*
X0003820D02*
X0004070D01*
X0004112Y0016118D01*
Y0016201D01*
X0004028Y0016284D01*
X0003778D01*
X0007212Y0016826D02*
X0007379D01*
X0007420Y0016742D01*
Y0016576D01*
X0007462Y0016492D01*
X0007170D01*
X0007129Y0016576D01*
X0007170Y0016659D01*
X0007420D01*
X0006845Y0016492D02*
X0006595D01*
X0006554Y0016576D01*
Y0016742D01*
X0006595Y0016826D01*
X0006845D01*
X0006887Y0016742D01*
Y0016659D01*
X0006554D01*
X0006312Y0016492D02*
Y0016742D01*
X0006270Y0016826D01*
X0006020D01*
Y0016492D01*
X0005695Y0016742D02*
X0005445D01*
X0005779Y0016492D02*
X0005445D01*
Y0016992D01*
X0005779D01*
X0004358Y0016492D02*
X0004441D01*
Y0016576D01*
X0004358D01*
Y0016492D01*
X0003908Y0016742D02*
X0004033Y0016492D01*
X0003700Y0016742D02*
X0003950D01*
X0004033Y0016826D01*
Y0016909D01*
X0003950Y0016992D01*
X0003700D01*
Y0016492D01*
X0003375D02*
X0003458D01*
Y0016576D01*
X0003375D01*
Y0016492D01*
X0003050Y0016576D02*
X0003008Y0016492D01*
X0002758D01*
X0002716Y0016576D01*
Y0016909D01*
X0002758Y0016992D01*
X0003008D01*
X0003050Y0016909D01*
X0017384Y0025224D02*
X0017342Y0025308D01*
Y0025474D01*
X0017384Y0025558D01*
X0017634D01*
X0017675Y0025474D01*
Y0025308D01*
X0017634Y0025224D01*
X0017384D01*
X0017100D02*
Y0025474D01*
X0017059Y0025558D01*
X0016809D01*
Y0025224D01*
X0016317Y0025558D02*
X0016484D01*
X0016525Y0025474D01*
Y0025308D01*
X0016567Y0025224D01*
X0016275D01*
X0016234Y0025308D01*
X0016275Y0025391D01*
X0016525D01*
X0015908Y0025724D02*
Y0025725D01*
X0015909D01*
Y0025724D01*
X0015908D01*
X0015992Y0025224D02*
X0015825D01*
X0015909D02*
Y0025558D01*
X0015825D01*
X0015542D02*
X0015375D01*
X0015334Y0025474D01*
X0015250D01*
Y0025558D02*
Y0025224D01*
X0014967Y0025558D02*
Y0025224D01*
X0015009D02*
X0014717D01*
X0014675Y0025308D01*
Y0025558D01*
X0014434Y0025641D02*
X0014392Y0025724D01*
X0014142D01*
X0014100Y0025641D01*
Y0025558D01*
X0014142Y0025474D01*
X0014392D01*
X0014434Y0025391D01*
Y0025308D01*
X0014392Y0025224D01*
X0014142D01*
X0014100Y0025308D01*
X0012804Y0025224D02*
X0012763Y0025308D01*
Y0025474D01*
X0012804Y0025558D01*
X0013054D01*
X0013096Y0025474D01*
Y0025308D01*
X0013054Y0025224D01*
X0012804D01*
X0012521Y0025558D02*
X0012271D01*
X0012229Y0025474D01*
Y0025308D01*
X0012271Y0025224D01*
X0012521D01*
X0011904Y0025724D02*
Y0025725D01*
X0011905D01*
Y0025724D01*
X0011904D01*
X0011988Y0025224D02*
X0011821D01*
X0011904D02*
Y0025558D01*
X0011821D01*
X0011538Y0025224D02*
Y0025474D01*
X0011496Y0025558D01*
X0011246D01*
Y0025224D01*
X0010963D02*
X0010713D01*
X0010671Y0025308D01*
Y0025474D01*
X0010713Y0025558D01*
X0010963D01*
X0011004Y0025474D01*
Y0025391D01*
X0010671D01*
X0010263Y0025224D02*
Y0025474D01*
X0010429Y0025224D02*
Y0025474D01*
X0010388Y0025558D01*
X0010304D01*
X0010263Y0025474D01*
X0010221Y0025558D01*
X0010138D01*
X0010096Y0025474D01*
Y0025224D01*
X0009563D02*
X0009521Y0025308D01*
Y0025474D01*
X0009563Y0025558D01*
X0009813D01*
X0009854Y0025474D01*
Y0025308D01*
X0009813Y0025224D01*
X0009563D01*
X0008988D02*
Y0025724D01*
X0008946Y0025224D02*
X0009196D01*
X0009279Y0025391D01*
Y0025558D01*
X0009196Y0025724D01*
X0008946D01*
X0007859Y0025224D02*
X0007942D01*
Y0025308D01*
X0007859D01*
Y0025224D01*
X0007325Y0025058D02*
X0007492D01*
X0007534Y0025141D01*
Y0025558D01*
X0007284D01*
X0007242Y0025474D01*
Y0025308D01*
X0007284Y0025224D01*
X0007534D01*
X0007000D02*
Y0025474D01*
X0006959Y0025558D01*
X0006709D01*
Y0025224D01*
X0006467D02*
X0006300D01*
X0006384D02*
Y0025724D01*
X0006467D02*
X0006300D01*
X0018968Y0021860D02*
X0018898Y0021895D01*
X0018828D01*
X0018758Y0021860D01*
Y0021650D01*
X0018828Y0021615D01*
X0018898D01*
X0018968Y0021650D01*
Y0021860D01*
X0019038Y0021895D01*
X0019108D01*
X0019178Y0021860D01*
Y0021650D01*
X0019108Y0021615D01*
X0019038D01*
X0018968Y0021650D01*
X0018828Y0021380D02*
X0018758Y0021345D01*
Y0021135D01*
X0018828Y0021100D01*
X0018898D01*
X0018968Y0021135D01*
Y0021345D01*
X0019038Y0021380D01*
X0019108D01*
X0019178Y0021345D01*
Y0021135D01*
X0019108Y0021100D01*
X0018942Y0009192D02*
X0019109D01*
X0019026D02*
Y0008692D01*
X0019109Y0008776D01*
X0006120Y0003804D02*
X0006286D01*
X0006203D02*
Y0003304D01*
X0006286Y0003387D01*
X0006187Y0000062D02*
Y0000229D01*
Y0000146D02*
X0006687D01*
X0006604Y0000229D01*
X0006273Y-0002800D02*
Y-0002466D01*
X0006106Y-0002633D02*
X0006440D01*
X0015773Y0011890D02*
Y0012057D01*
Y0011974D02*
X0016273D01*
X0016190Y0012057D01*
X0001708Y0004889D02*
X0001541D01*
X0001624D02*
Y0005389D01*
X0001541Y0005306D01*
X-0005317Y0007494D02*
X-0004984D01*
X-0005150Y0007660D02*
Y0007327D01*
X0018105Y0025078D02*
Y0025245D01*
Y0025162D02*
X0018605D01*
X0018522Y0025245D01*
X0009488Y0014453D02*
X0009208D01*
X0009488Y0014733D01*
Y0014803D01*
X0009453Y0014873D01*
X0009243D01*
X0009208Y0014803D01*
X0008973Y0014733D02*
X0008763D01*
X0008728Y0014663D01*
Y0014523D01*
X0008763Y0014453D01*
X0008973D01*
X0007372Y0012447D02*
X0007232D01*
X0007302D02*
Y0012867D01*
X0007232Y0012797D01*
X0006927Y0012727D02*
X0006717D01*
X0006682Y0012657D01*
Y0012517D01*
X0006717Y0012447D01*
X0006927D01*
X0008833Y0012425D02*
X0008623D01*
X0008553Y0012390D01*
Y0012180D01*
X0008833D02*
X0008413D01*
X0008553Y0011945D02*
Y0011805D01*
X0008623Y0011770D01*
Y0011700D01*
X0008553D02*
X0008833D01*
X0008626Y0010946D02*
Y0011446D01*
X0008792D02*
X0008459D01*
X0008540Y0010238D02*
Y0010738D01*
X0008498Y0010238D02*
X0008748D01*
X0008832Y0010322D01*
Y0010405D01*
X0008790Y0010488D01*
X0008540D02*
X0008790D01*
X0008832Y0010572D01*
Y0010655D01*
X0008748Y0010738D01*
X0008498D01*
X0011270Y0011412D02*
Y0010992D01*
X0011060D01*
X0011025Y0011062D01*
Y0011202D01*
X0011060Y0011272D01*
X0011270D01*
X0010790Y0010992D02*
Y0011202D01*
X0010755Y0011272D01*
X0010545D01*
Y0010992D01*
X0010135Y0010852D02*
X0010275D01*
X0010310Y0010922D01*
Y0011272D01*
X0010100D01*
X0010065Y0011202D01*
Y0011062D01*
X0010100Y0010992D01*
X0010310D01*
X0010720Y0011932D02*
Y0011652D01*
X0010860Y0011792D02*
X0010580D01*
X0010345Y0012002D02*
Y0011862D01*
X0010205Y0011582D01*
X0010065Y0011862D01*
Y0012002D01*
X0012047Y0012932D02*
X0012257D01*
X0012292Y0012862D01*
Y0012792D01*
X0012257Y0012722D01*
X0012047D01*
X0012012Y0012792D01*
Y0012862D01*
X0012152Y0013142D01*
X0011777Y0012722D02*
Y0012932D01*
X0011742Y0013002D01*
X0011532D01*
Y0012722D02*
Y0013142D01*
X0011297Y0013002D02*
X0011087D01*
X0011052Y0012932D01*
Y0012792D01*
X0011087Y0012722D01*
X0011297D01*
X0010677Y0012932D02*
X0010817D01*
Y0012792D01*
X0010782Y0012722D01*
X0010572D01*
X0010537Y0012792D01*
Y0013072D01*
X0010572Y0013142D01*
X0010782D01*
X0010817Y0013072D01*
X0015679Y0012854D02*
X0015714Y0012924D01*
Y0012994D01*
X0015679Y0013064D01*
X0015469D01*
X0015434Y0012994D01*
Y0012924D01*
X0015469Y0012854D01*
X0015679D01*
X0015714Y0012784D01*
Y0012714D01*
X0015679Y0012644D01*
X0015469D01*
X0015434Y0012714D01*
Y0012784D01*
X0015469Y0012854D01*
X0015199Y0012644D02*
Y0012854D01*
X0015164Y0012924D01*
X0014954D01*
Y0012644D02*
Y0013064D01*
X0014719Y0012924D02*
X0014509D01*
X0014474Y0012854D01*
Y0012714D01*
X0014509Y0012644D01*
X0014719D01*
X0014099Y0012854D02*
X0014239D01*
Y0012714D01*
X0014204Y0012644D01*
X0013994D01*
X0013959Y0012714D01*
Y0012994D01*
X0013994Y0013064D01*
X0014204D01*
X0014239Y0012994D01*
X0014481Y0020825D02*
X0014691Y0021245D01*
X0014411D01*
X0014176Y0020825D02*
Y0021035D01*
X0014141Y0021105D01*
X0013931D01*
Y0020825D02*
Y0021245D01*
X0013696Y0021105D02*
X0013486D01*
X0013451Y0021035D01*
Y0020895D01*
X0013486Y0020825D01*
X0013696D01*
X0013076Y0021035D02*
X0013216D01*
Y0020895D01*
X0013181Y0020825D01*
X0012971D01*
X0012936Y0020895D01*
Y0021175D01*
X0012971Y0021245D01*
X0013181D01*
X0013216Y0021175D01*
X0011225Y0021800D02*
X0011260Y0021730D01*
X0011470D01*
X0011505Y0021800D01*
Y0021940D01*
X0011435Y0022010D01*
X0011225D01*
Y0022150D01*
X0011505D01*
X0010990Y0021730D02*
Y0021940D01*
X0010955Y0022010D01*
X0010745D01*
Y0021730D02*
Y0022150D01*
X0010510Y0022010D02*
X0010300D01*
X0010265Y0021940D01*
Y0021800D01*
X0010300Y0021730D01*
X0010510D01*
X0009890Y0021940D02*
X0010030D01*
Y0021800D01*
X0009995Y0021730D01*
X0009785D01*
X0009750Y0021800D01*
Y0022080D01*
X0009785Y0022150D01*
X0009995D01*
X0010030Y0022080D01*
X0002616Y0017600D02*
X0002336D01*
X0002616Y0017880D01*
Y0017950D01*
X0002581Y0018020D01*
X0002371D01*
X0002336Y0017950D01*
X0002101Y0017600D02*
Y0017810D01*
X0002066Y0017880D01*
X0001856D01*
Y0017600D02*
Y0018020D01*
X0001621Y0017880D02*
X0001411D01*
X0001376Y0017810D01*
Y0017670D01*
X0001411Y0017600D01*
X0001621D01*
X0001001Y0017810D02*
X0001141D01*
Y0017670D01*
X0001106Y0017600D01*
X0000896D01*
X0000861Y0017670D01*
Y0017950D01*
X0000896Y0018020D01*
X0001106D01*
X0001141Y0017950D01*
X0006353Y0017425D02*
X0006073D01*
X0006213Y0017705D01*
X0006283D01*
Y0017285D01*
X0005838D02*
Y0017495D01*
X0005803Y0017565D01*
X0005593D01*
Y0017285D02*
Y0017705D01*
X0005358Y0017565D02*
X0005148D01*
X0005113Y0017495D01*
Y0017355D01*
X0005148Y0017285D01*
X0005358D01*
X0004738Y0017495D02*
X0004878D01*
Y0017355D01*
X0004843Y0017285D01*
X0004633D01*
X0004598Y0017355D01*
Y0017635D01*
X0004633Y0017705D01*
X0004843D01*
X0004878Y0017635D01*
X0005184Y0025447D02*
X0005254Y0025517D01*
Y0025657D01*
X0005184Y0025727D01*
X0005114D01*
X0004974Y0025587D01*
X0004834Y0025727D01*
Y0025447D01*
X0005254Y0025212D02*
X0005044D01*
X0004974Y0025177D01*
Y0024967D01*
X0005254D02*
X0004834D01*
X0004974Y0024732D02*
Y0024522D01*
X0005044Y0024487D01*
X0005184D01*
X0005254Y0024522D01*
Y0024732D01*
X0005044Y0024112D02*
Y0024252D01*
X0005184D01*
X0005254Y0024217D01*
Y0024007D01*
X0005184Y0023972D01*
X0004904D01*
X0004834Y0024007D01*
Y0024217D01*
X0004904Y0024252D01*
X0001950Y0025499D02*
Y0025359D01*
Y0025429D02*
X0001530D01*
X0001600Y0025359D01*
X0001950Y0025054D02*
X0001740D01*
X0001670Y0025019D01*
Y0024809D01*
X0001950D02*
X0001530D01*
X0001670Y0024574D02*
Y0024364D01*
X0001740Y0024329D01*
X0001880D01*
X0001950Y0024364D01*
Y0024574D01*
X0001740Y0023954D02*
Y0024094D01*
X0001880D01*
X0001950Y0024059D01*
Y0023849D01*
X0001880Y0023814D01*
X0001600D01*
X0001530Y0023849D01*
Y0024059D01*
X0001600Y0024094D01*
X0018797Y0023827D02*
X0019217D01*
Y0023617D01*
X0019147Y0023582D01*
X0019007D01*
X0018937Y0023617D01*
Y0023827D01*
X0018797Y0023347D02*
X0018937D01*
X0019217Y0023207D01*
X0018937Y0023067D01*
X0018797D01*
X0018679Y0025373D02*
X0019099D01*
Y0025163D01*
X0019029Y0025128D01*
X0018889D01*
X0018819Y0025163D01*
Y0025373D01*
X0019099Y0024893D02*
X0018889D01*
X0018819Y0024858D01*
Y0024648D01*
X0019099D01*
X0019239Y0024238D02*
Y0024378D01*
X0019169Y0024413D01*
X0018819D01*
Y0024203D01*
X0018889Y0024168D01*
X0019029D01*
X0019099Y0024203D01*
Y0024413D01*
X0018797Y0022879D02*
X0018937D01*
X0019217Y0022739D01*
X0018937Y0022599D01*
X0018797D01*
X0019147Y0022084D02*
X0019217Y0022154D01*
Y0022294D01*
X0019147Y0022364D01*
X0019077D01*
X0018937Y0022224D01*
X0018797Y0022364D01*
Y0022084D01*
X0006250Y0007745D02*
Y0007620D01*
X0006125D01*
Y0011620D02*
X0006250D01*
Y0011495D01*
X0002250D02*
Y0011620D01*
X0002375D01*
X0002250Y0007745D02*
X0002437Y0007558D01*
X0002438D01*
Y0007120D01*
X0001011Y0006891D02*
Y0002141D01*
X-0005489D01*
Y0006891D01*
X0001011D01*
X-0004489Y0002141D02*
Y0006891D01*
X0002124Y0014986D02*
X0006687D01*
Y0013019D01*
X0002124D01*
Y0014986D01*
X-0003520Y0019155D02*
Y0018526D01*
X-0002340D01*
Y0019155D01*
X-0003520D01*
X-0003383Y0018664D02*
X-0003304D01*
Y0018742D01*
X-0003383D01*
Y0018664D01*
X0013570Y0025213D02*
Y0023639D01*
X0010227D01*
Y0025213D01*
X0013570D01*
G54D102*
G01X0015333Y0015428D02*
Y0015539D01*
Y0015483D02*
X0015666D01*
X0015610Y0015539D01*
X0015333Y0015742D02*
Y0015964D01*
X0015555Y0015742D01*
X0015610D01*
X0015666Y0015770D01*
Y0015936D01*
X0015610Y0015964D01*
X0015388Y0016112D02*
X0015333Y0016140D01*
Y0016306D01*
X0015388Y0016334D01*
X0015610D01*
X0015666Y0016306D01*
Y0016140D01*
X0015610Y0016112D01*
X-0001763Y0016541D02*
X-0002096Y0016708D01*
Y0016486D01*
X-0001818Y0016338D02*
X-0001763Y0016310D01*
Y0016143D01*
X-0001818Y0016116D01*
X-0002040D01*
X-0002096Y0016143D01*
Y0016310D01*
X-0002040Y0016338D01*
X-0000829Y0021081D02*
X-0000857Y0021025D01*
Y0020969D01*
X-0000829Y0020914D01*
X-0000662D01*
X-0000634Y0020969D01*
Y0021025D01*
X-0000662Y0021081D01*
X-0000829D01*
X-0000857Y0021136D01*
Y0021192D01*
X-0000829Y0021247D01*
X-0000662D01*
X-0000634Y0021192D01*
Y0021136D01*
X-0000662Y0021081D01*
X-0000487Y0021192D02*
X-0000459Y0021247D01*
X-0000292D01*
X-0000264Y0021192D01*
Y0020969D01*
X-0000292Y0020914D01*
X-0000459D01*
X-0000487Y0020969D01*
X0012472Y0015293D02*
X0012527Y0015348D01*
Y0015459D01*
X0012472Y0015515D01*
X0012416D01*
X0012305Y0015404D01*
X0012194Y0015515D01*
Y0015293D01*
X0012416Y0015145D02*
Y0014923D01*
X0012194Y0015034D01*
Y0015089D01*
X0012527D01*
X0012360Y0014692D02*
X0012527Y0014775D01*
X0012360Y0014553D02*
Y0014719D01*
X0012305Y0014775D01*
X0012249D01*
X0012194Y0014719D01*
Y0014553D01*
X0012527D01*
X0015838Y0017221D02*
X0015782Y0017276D01*
X0015754Y0017332D01*
Y0017443D01*
X0015782Y0017498D01*
X0015838Y0017554D01*
X0015893D01*
X0015949Y0017498D01*
X0015977Y0017443D01*
Y0017332D01*
X0015949Y0017276D01*
X0015893Y0017221D01*
X0015838D01*
X0015607Y0017332D02*
X0015384D01*
X0015495Y0017554D01*
X0015551D01*
Y0017221D01*
X0015153Y0017387D02*
X0015237Y0017221D01*
X0015014Y0017387D02*
X0015181D01*
X0015237Y0017443D01*
Y0017498D01*
X0015181Y0017554D01*
X0015014D01*
Y0017221D01*
X0006925Y0021207D02*
Y0021041D01*
X0006869Y0021013D01*
X0006813D01*
X0006758Y0021041D01*
Y0021207D01*
X0006813Y0021235D01*
X0006869D01*
X0007091Y0021124D01*
X0006758Y0021383D02*
Y0021494D01*
Y0021438D02*
X0007091D01*
X0007036Y0021494D01*
X0006813Y0021697D02*
X0006758Y0021725D01*
Y0021892D01*
X0006813Y0021920D01*
X0007036D01*
X0007091Y0021892D01*
Y0021725D01*
X0007036Y0021697D01*
X0016763Y0016157D02*
Y0016046D01*
Y0016101D02*
X0016430D01*
X0016485Y0016046D01*
X0016652Y0015843D02*
Y0015620D01*
X0016430Y0015731D01*
Y0015787D01*
X0016763D01*
X0016597Y0015389D02*
X0016763Y0015473D01*
X0016597Y0015250D02*
Y0015417D01*
X0016541Y0015473D01*
X0016485D01*
X0016430Y0015417D01*
Y0015250D01*
X0016763D01*
X0016466Y0021901D02*
Y0022124D01*
X0016689Y0022012D01*
Y0021957D01*
X0016355D01*
Y0022271D02*
Y0022494D01*
X0016577Y0022271D01*
X0016633D01*
X0016689Y0022299D01*
Y0022466D01*
X0016633Y0022494D01*
X0016522Y0022725D02*
X0016355Y0022641D01*
X0016522Y0022864D02*
Y0022697D01*
X0016577Y0022641D01*
X0016633D01*
X0016689Y0022697D01*
Y0022864D01*
X0016355D01*
X0002007Y0021017D02*
X0001785D01*
X0001896Y0021239D01*
X0001952D01*
Y0020906D01*
X0001637D02*
X0001526D01*
X0001582D02*
Y0021239D01*
X0001526Y0021184D01*
X0001323Y0020962D02*
X0001295Y0020906D01*
X0001129D01*
X0001101Y0020962D01*
Y0021184D01*
X0001129Y0021239D01*
X0001295D01*
X0001323Y0021184D01*
X0015815Y0021586D02*
X0015870Y0021614D01*
Y0021781D01*
X0015815Y0021808D01*
X0015704D01*
X0015648Y0021753D01*
Y0021586D01*
X0015537D01*
Y0021808D01*
X0015870Y0021438D02*
Y0021216D01*
X0015648Y0021438D01*
X0015593D01*
X0015537Y0021411D01*
Y0021244D01*
X0015593Y0021216D01*
X0015704Y0020985D02*
X0015870Y0021068D01*
X0015704Y0020846D02*
Y0021013D01*
X0015648Y0021068D01*
X0015593D01*
X0015537Y0021013D01*
Y0020846D01*
X0015870D01*
X-0004318Y0012818D02*
X-0004373Y0012790D01*
Y0012623D01*
X-0004318Y0012595D01*
X-0004207D01*
X-0004151Y0012651D01*
Y0012818D01*
X-0004040D01*
Y0012595D01*
X-0004318Y0012965D02*
X-0004373Y0012993D01*
Y0013160D01*
X-0004318Y0013188D01*
X-0004095D01*
X-0004040Y0013160D01*
Y0012993D01*
X-0004095Y0012965D01*
X0015870Y0019934D02*
X0015537Y0020101D01*
Y0019878D01*
X0015870Y0019731D02*
Y0019620D01*
Y0019675D02*
X0015537D01*
X0015593Y0019620D01*
X0015704Y0019333D02*
X0015870Y0019416D01*
X0015704Y0019194D02*
Y0019361D01*
X0015648Y0019416D01*
X0015593D01*
X0015537Y0019361D01*
Y0019194D01*
X0015870D01*
X0017825Y0012633D02*
Y0012411D01*
X0017603Y0012633D01*
X0017547D01*
X0017492Y0012605D01*
Y0012439D01*
X0017547Y0012411D01*
X0017770Y0012041D02*
X0017825Y0012097D01*
Y0012208D01*
X0017770Y0012263D01*
X0017714D01*
X0017603Y0012152D01*
X0017492Y0012263D01*
Y0012041D01*
X0017659Y0011810D02*
X0017825Y0011893D01*
X0017659Y0011671D02*
Y0011838D01*
X0017603Y0011893D01*
X0017547D01*
X0017492Y0011838D01*
Y0011671D01*
X0017825D01*
X0016985Y0017938D02*
X0017152D01*
X0017180Y0017882D01*
Y0017827D01*
X0017152Y0017771D01*
X0016985D01*
X0016957Y0017827D01*
Y0017882D01*
X0017068Y0018105D01*
X0016810Y0017771D02*
X0016699D01*
X0016754D02*
Y0018105D01*
X0016699Y0018049D01*
X0016412Y0017938D02*
X0016495Y0017771D01*
X0016273Y0017938D02*
X0016440D01*
X0016495Y0017993D01*
Y0018049D01*
X0016440Y0018105D01*
X0016273D01*
Y0017771D01*
X0014454Y0014887D02*
Y0016487D01*
X0015204D01*
Y0014887D01*
X0014454D01*
X-0002182Y0017327D02*
Y0015727D01*
X-0002932D01*
Y0017327D01*
X-0002182D01*
X0014750Y0014146D02*
X0013570D01*
Y0013216D01*
X0014750D01*
Y0014121D01*
X-0002577Y0020868D02*
X-0000977D01*
Y0020118D01*
X-0002577D01*
Y0020868D01*
X0014200Y0014532D02*
Y0015282D01*
X0012600D01*
Y0014532D01*
X0014200D01*
X0013216Y0019563D02*
X0014396D01*
Y0020493D01*
X0013216D01*
Y0019588D01*
X0017622Y0016932D02*
Y0017682D01*
X0016022D01*
Y0016932D01*
X0017622D01*
X0011157Y0019863D02*
Y0021043D01*
X0010227D01*
Y0019863D01*
X0011131D01*
X0003776Y0024766D02*
X0002596D01*
Y0023836D01*
X0003776D01*
Y0024741D01*
X0006548Y0019174D02*
Y0020774D01*
X0007298D01*
Y0019174D01*
X0006548D01*
X0017682Y0016363D02*
X0016932D01*
Y0014763D01*
X0017682D01*
Y0016363D01*
X0006706Y0018925D02*
X0005526D01*
Y0017995D01*
X0006706D01*
Y0018900D01*
X0005900Y0023614D02*
X0007080D01*
Y0024544D01*
X0005900D01*
Y0023639D01*
X0016853Y0021947D02*
X0017603D01*
Y0023547D01*
X0016853D01*
Y0021947D01*
X0001159Y0019056D02*
Y0020656D01*
X0001909D01*
Y0019056D01*
X0001159D01*
X0017622Y0020904D02*
Y0021654D01*
X0016022D01*
Y0020904D01*
X0017622D01*
X-0004741Y0010836D02*
Y0012436D01*
X-0003991D01*
Y0010836D01*
X-0004741D01*
X0003644Y0017779D02*
Y0018959D01*
X0002714D01*
Y0017779D01*
X0003619D01*
X0016209Y0023787D02*
X0016509D01*
Y0024047D01*
X0016564Y0024722D02*
X0016514D01*
X0016509Y0024727D02*
Y0024987D01*
X0016209D01*
X0017583Y0019213D02*
Y0019963D01*
X0015983D01*
Y0019213D01*
X0017583D01*
X0018704Y0013728D02*
X0017954D01*
Y0012128D01*
X0018704D01*
Y0013728D01*
X0017583Y0018151D02*
Y0018901D01*
X0015983D01*
Y0018151D01*
X0017583D01*
X0011825Y0013727D02*
Y0014907D01*
X0010895D01*
Y0013727D01*
X0011800D01*
G54D103*
G01X0010273Y0014306D02*
Y0014417D01*
Y0014361D02*
X0010607D01*
X0010551Y0014417D01*
X0010329Y0014888D02*
X0010273Y0014832D01*
Y0014721D01*
X0010329Y0014665D01*
X0010384D01*
X0010495Y0014777D01*
X0010607Y0014665D01*
Y0014888D01*
X0010440Y0015164D02*
X0010273Y0015081D01*
X0010440Y0015303D02*
Y0015136D01*
X0010495Y0015081D01*
X0010551D01*
X0010607Y0015136D01*
Y0015303D01*
X0010273D01*
X0006508Y0002121D02*
Y0002287D01*
X0006563Y0002315D01*
X0006619D01*
X0006674Y0002287D01*
Y0002121D01*
X0006619Y0002093D01*
X0006563D01*
X0006341Y0002204D01*
X0006452Y0002703D02*
X0006396D01*
X0006341Y0002675D01*
Y0002564D01*
X0006396Y0002536D01*
X0006674D01*
Y0002508D02*
Y0002619D01*
X0015576Y0013369D02*
X0015631Y0013341D01*
X0015687D01*
X0015743Y0013369D01*
Y0013536D01*
X0015687Y0013563D01*
X0015631D01*
X0015576Y0013536D01*
Y0013369D01*
X0015520Y0013341D01*
X0015465D01*
X0015409Y0013369D01*
Y0013536D01*
X0015465Y0013563D01*
X0015520D01*
X0015576Y0013536D01*
X0015465Y0013979D02*
X0015409Y0013923D01*
Y0013812D01*
X0015465Y0013756D01*
X0015520D01*
X0015631Y0013868D01*
X0015743Y0013756D01*
Y0013979D01*
X0015576Y0014255D02*
X0015409Y0014172D01*
X0015576Y0014394D02*
Y0014227D01*
X0015631Y0014172D01*
X0015687D01*
X0015743Y0014227D01*
Y0014394D01*
X0015409D01*
X0012390Y0020497D02*
Y0020330D01*
X0012334Y0020302D01*
X0012279D01*
X0012223Y0020330D01*
Y0020497D01*
X0012279Y0020525D01*
X0012334D01*
X0012557Y0020414D01*
X0012501Y0019887D02*
X0012557Y0019943D01*
Y0020054D01*
X0012501Y0020109D01*
X0012445D01*
X0012334Y0019998D01*
X0012223Y0020109D01*
Y0019887D01*
X0012390Y0019611D02*
X0012557Y0019694D01*
X0012390Y0019472D02*
Y0019638D01*
X0012334Y0019694D01*
X0012279D01*
X0012223Y0019638D01*
Y0019472D01*
X0012557D01*
X0001517Y0001011D02*
X0001683Y0001344D01*
X0001461D01*
X0001268D02*
Y0001066D01*
X0001240Y0001011D01*
X0001074D01*
X0001046Y0001066D01*
Y0001344D01*
X0009114Y0020345D02*
X0009170Y0020289D01*
X0009197Y0020233D01*
Y0020122D01*
X0009170Y0020067D01*
X0009114Y0020011D01*
X0009058D01*
X0009003Y0020067D01*
X0008975Y0020122D01*
Y0020233D01*
X0009003Y0020289D01*
X0009058Y0020345D01*
X0009114D01*
X0009613Y0020289D02*
X0009557Y0020345D01*
X0009446D01*
X0009390Y0020289D01*
Y0020233D01*
X0009502Y0020122D01*
X0009390Y0020011D01*
X0009613D01*
X0009889Y0020178D02*
X0009806Y0020345D01*
X0010028Y0020178D02*
X0009861D01*
X0009806Y0020122D01*
Y0020067D01*
X0009861Y0020011D01*
X0010028D01*
Y0020345D01*
X0004063Y0025056D02*
X0003840D01*
X0003952Y0025278D01*
X0004007D01*
Y0024945D01*
X0003647D02*
X0003536D01*
X0003592D02*
Y0025278D01*
X0003536Y0025222D01*
X0003204Y0025111D02*
X0003288Y0024945D01*
X0003065Y0025111D02*
X0003232D01*
X0003288Y0025167D01*
Y0025222D01*
X0003232Y0025278D01*
X0003065D01*
Y0024945D01*
X0007366Y0017923D02*
Y0018146D01*
X0007588Y0017923D01*
X0007643D01*
X0007699Y0017951D01*
Y0018118D01*
X0007643Y0018146D01*
X0007366Y0018339D02*
Y0018561D01*
X0007588Y0018339D01*
X0007643D01*
X0007699Y0018367D01*
Y0018533D01*
X0007643Y0018561D01*
X0007532Y0018837D02*
X0007366Y0018754D01*
X0007532Y0018976D02*
Y0018810D01*
X0007588Y0018754D01*
X0007643D01*
X0007699Y0018810D01*
Y0018976D01*
X0007366D01*
X0014786Y0018173D02*
X0014619D01*
X0014591Y0018228D01*
Y0018284D01*
X0014619Y0018340D01*
X0014786D01*
X0014813Y0018284D01*
Y0018228D01*
X0014702Y0018006D01*
X0014398Y0018340D02*
Y0018062D01*
X0014370Y0018006D01*
X0014204D01*
X0014176Y0018062D01*
Y0018340D01*
X-0001695Y0018923D02*
X-0001528D01*
X-0001500Y0018867D01*
Y0018812D01*
X-0001528Y0018756D01*
X-0001695D01*
X-0001723Y0018812D01*
Y0018867D01*
X-0001612Y0019089D01*
X-0001916D02*
Y0018812D01*
X-0001944Y0018756D01*
X-0002110D01*
X-0002138Y0018812D01*
Y0019089D01*
X0007614Y0023021D02*
X0007670Y0022966D01*
X0007781D01*
X0007837Y0023021D01*
Y0023077D01*
X0007726Y0023188D01*
X0007837Y0023299D01*
X0007614D01*
X0007421Y0022966D02*
X0007199D01*
X0007421Y0023188D01*
Y0023243D01*
X0007394Y0023299D01*
X0007227D01*
X0007199Y0023243D01*
X0006923Y0023132D02*
X0007006Y0022966D01*
X0006784Y0023132D02*
X0006950D01*
X0007006Y0023188D01*
Y0023243D01*
X0006950Y0023299D01*
X0006784D01*
Y0022966D01*
X0001780Y0018480D02*
X0001752Y0018535D01*
X0001585D01*
X0001557Y0018480D01*
Y0018369D01*
X0001613Y0018313D01*
X0001780D01*
Y0018202D01*
X0001557D01*
X0001973Y0018535D02*
X0002084D01*
X0002028D02*
Y0018202D01*
X0002084Y0018257D01*
X0002416Y0018369D02*
X0002332Y0018535D01*
X0002555Y0018369D02*
X0002388D01*
X0002332Y0018313D01*
Y0018257D01*
X0002388Y0018202D01*
X0002555D01*
Y0018535D01*
X0015563Y0022791D02*
Y0023071D01*
X0015843Y0022791D01*
X0015913D01*
X0015983Y0022826D01*
Y0023036D01*
X0015913Y0023071D01*
X0015983Y0023271D02*
X0015633D01*
X0015563Y0023306D01*
Y0023516D01*
X0015633Y0023551D01*
X0015983D01*
X0004677Y0023562D02*
X0004705Y0023617D01*
Y0023673D01*
X0004677Y0023728D01*
X0004510D01*
X0004482Y0023673D01*
Y0023617D01*
X0004510Y0023562D01*
X0004677D01*
X0004705Y0023506D01*
Y0023450D01*
X0004677Y0023395D01*
X0004510D01*
X0004482Y0023450D01*
Y0023506D01*
X0004510Y0023562D01*
X0004289Y0023728D02*
Y0023450D01*
X0004262Y0023395D01*
X0004095D01*
X0004067Y0023450D01*
Y0023728D01*
X0017701Y0014150D02*
X0017478D01*
X0017701Y0014372D01*
Y0014428D01*
X0017673Y0014483D01*
X0017506D01*
X0017478Y0014428D01*
X0017285Y0014150D02*
X0017063D01*
X0017285Y0014372D01*
Y0014428D01*
X0017257Y0014483D01*
X0017091D01*
X0017063Y0014428D01*
X0016675Y0014261D02*
Y0014205D01*
X0016703Y0014150D01*
X0016814D01*
X0016842Y0014205D01*
Y0014483D01*
X0016870D02*
X0016759D01*
X0012497Y0023086D02*
X0012567Y0023016D01*
X0012707D01*
X0012777Y0023086D01*
Y0023156D01*
X0012637Y0023296D01*
X0012777Y0023436D01*
X0012497D01*
X0012297D02*
Y0023086D01*
X0012262Y0023016D01*
X0012052D01*
X0012017Y0023086D01*
Y0023436D01*
X-0001520Y0015568D02*
X-0001492Y0015512D01*
X-0001326D01*
X-0001298Y0015568D01*
Y0015679D01*
X-0001353Y0015734D01*
X-0001520D01*
Y0015845D01*
X-0001298D01*
X-0001713D02*
Y0015568D01*
X-0001741Y0015512D01*
X-0001908D01*
X-0001935Y0015568D01*
Y0015845D01*
X-0003803Y0015189D02*
Y0012089D01*
X-0001163D01*
Y0015189D01*
G54D41*
%LPC*%
X0016245Y0014907D03*
X0004995Y0011131D03*
X0003894Y0021358D03*
X-0000905Y0010699D03*
X0005782Y0010109D03*
X0004366Y0008457D03*
X0007080Y-0002360D03*
X0011210Y0023718D03*
X0000944Y0007906D03*
X0004366Y0008457D03*
X-0000551Y0020493D03*
X0014514Y0017464D03*
X0003186Y0000590D03*
X-0000472Y0006372D03*
X-0000787Y0011800D03*
X0011800Y0024741D03*
X0004681Y0020729D03*
X-0004327Y0016717D03*
X-0004484Y0020453D03*
X0003540Y0010777D03*
X0012823Y0012547D03*
X-0004484Y0020453D03*
X-0000787Y0015655D03*
X0004799Y0009951D03*
X0008417Y0024583D03*
X0003461Y0008653D03*
X0004681Y0020729D03*
X-0002478Y0021437D03*
X-0003933Y0006451D03*
X-0000197Y0002242D03*
X-0003933Y0006451D03*
X-0004563Y0009873D03*
X0004051Y0018054D03*
X0004012Y0022813D03*
X0006608Y0007513D03*
X0009165Y0008811D03*
X0010109Y0012587D03*
X0011761Y0011643D03*
X-0003737Y0017228D03*
X0009361Y0018133D03*
X0010895Y0009597D03*
X0005507Y0008221D03*
X0003933Y0000629D03*
X-0004681Y0013491D03*
X0004366Y0018959D03*
X0007591Y0021043D03*
X0003186Y0015930D03*
X0003933Y0000629D03*
X0004995Y0008614D03*
X0010345Y0009086D03*
X0009794Y0014081D03*
X0006805Y0017464D03*
X-0002478Y0021437D03*
X0008811Y0006687D03*
X0011643Y0019706D03*
X0001691Y0014671D03*
X0003894Y0009519D03*
X0009715Y0016638D03*
X0014671Y0018880D03*
X0008142Y0023600D03*
X0000315Y0021869D03*
X-0000079Y0019509D03*
X0007670Y0020217D03*
X0016245Y0014907D03*
X0009755Y0017464D03*
X0015891Y0020414D03*
X0003147Y0010266D03*
X0009715Y0018801D03*
X0004759Y0022774D03*
X-0002124Y0005507D03*
X0001849Y0023246D03*
X0012311Y0014042D03*
X0012193Y0016087D03*
X0009912Y0023403D03*
X0009715Y0015930D03*
X0011643Y0018015D03*
X0015419Y0018290D03*
X0010030Y0006687D03*
X0004327Y0022263D03*
X0007749Y0022499D03*
X0014121Y0023049D03*
X0014986Y0016913D03*
X0012351Y0018683D03*
X0015104Y0023207D03*
X0001849Y0022538D03*
X0003068Y0008142D03*
X-0004759Y0003068D03*
X-0003855Y0005310D03*
X0007591Y0021043D03*
X0004366Y0018959D03*
X0003225Y0012705D03*
X0001180Y0015419D03*
X0001534Y0004484D03*
X0004130Y0012665D03*
X0015301Y0018919D03*
X0001849Y0022538D03*
X0007041Y0014711D03*
X0016874Y0020571D03*
X0016402Y0023285D03*
X0010817Y0024662D03*
X0005782Y0024977D03*
X0017425Y0013098D03*
X0002950Y0011092D03*
X0005310Y0009204D03*
X0005703Y0006097D03*
X0006254Y0006490D03*
X-0003697Y0020807D03*
X0016284Y0016481D03*
X0011879Y0020925D03*
%LPD*%
G54D104*
%LPC*%
X-0001259Y0021437D03*
X-0001573Y0019588D03*
X-0001534Y0017189D03*
X-0001573Y0018251D03*
X0015497Y0007670D03*
X0014710D03*
X0013922D03*
X0013135D03*
X0012348D03*
X0011560D03*
X0010773D03*
X0009985D03*
X0009198D03*
X0008411D03*
Y-0000991D03*
X0009198D03*
X0009985D03*
X0010773D03*
X0011560D03*
X0012348D03*
X0013135D03*
X0013922D03*
X0014710D03*
X0015497D03*
X-0001495Y0006923D03*
X-0001534Y0002124D03*
X-0000433Y0003973D03*
Y0004877D03*
X0000472Y0003973D03*
Y0004877D03*
X0018329Y0024505D03*
Y0023505D03*
Y0022505D03*
Y0021505D03*
Y0020505D03*
Y0019505D03*
Y0018505D03*
Y0017505D03*
Y0016505D03*
Y0015505D03*
Y0014505D03*
X0000983Y-0002399D03*
X-0000017D03*
X0002281Y-0002360D03*
X0003281D03*
X0005310Y0003579D03*
X0004602D03*
X0003894D03*
X0003186D03*
X0002478D03*
X0001770D03*
X0006844Y-0000590D03*
Y-0001590D03*
X0009024Y-0002360D03*
X0008024D03*
X-0004445Y0015340D03*
Y0014340D03*
X-0004405Y0007906D03*
Y0008906D03*
X-0002911Y0009794D03*
Y0008794D03*
Y0007794D03*
X0002321Y0004799D03*
X0003321D03*
X0000157Y0012075D03*
Y0011367D03*
Y0010659D03*
Y0009951D03*
Y0009263D03*
X0005546Y0004799D03*
X0004546D03*
X0000118Y0013413D03*
Y0014413D03*
Y0015413D03*
Y0016413D03*
Y0017413D03*
Y0018413D03*
X0007355Y0005507D03*
Y0004799D03*
Y0004091D03*
Y0003383D03*
Y0002675D03*
Y0001967D03*
Y0001259D03*
Y0000551D03*
X0003933Y0006018D03*
X0003225D03*
X0002517D03*
X0001809D03*
X0009440Y0012508D03*
Y0011800D03*
Y0011092D03*
Y0010384D03*
Y0009696D03*
X0015997Y0011120D03*
Y0010120D03*
X0008260Y0013885D03*
Y0014593D03*
Y0015301D03*
Y0016009D03*
Y0016697D03*
X0007906Y0010502D03*
Y0011210D03*
Y0011918D03*
Y0012626D03*
X0005467Y-0002360D03*
X0004467D03*
X0017346Y-0002439D03*
X0016559D03*
X0015771D03*
X0014984D03*
X0014196D03*
X0013409D03*
X0012622D03*
X0011834D03*
X0011047D03*
X0010259D03*
X0018565Y0008889D03*
X0017779D03*
X0016990D03*
X0016203D03*
X0015416D03*
X0014628D03*
X0013841D03*
X0013053D03*
X0012266D03*
X0011479D03*
X0018369Y0010345D03*
X0000039Y0023639D03*
X0000000Y0000000D03*
%LPD*%
M02*
