%
T1C0.0280F200S100
X-004759Y003068
X-004681Y013491
X-004563Y009873
X-004484Y020453
X-004327Y016717
X-003933Y006451
X-003855Y005310
X-003737Y017228
X-003697Y020807
X-002478Y021437
X-002124Y005507
X-001573Y018251
X-001573Y019588
X-001534Y017189
X-001259Y021437
X-000905Y010699
X-000787Y011800
X-000787Y015655
X-000551Y020493
X-000472Y006372
X-000197Y002242
X-000079Y019509
X000315Y021869
X000944Y007906
X001180Y015419
X001534Y004484
X001691Y014671
X001849Y022538
X001849Y023246
X002950Y011092
X003068Y008142
X003147Y010266
X003186Y000590
X003186Y015930
X003225Y012705
X003461Y008653
X003540Y010777
X003894Y009519
X003894Y021358
X003933Y000629
X004012Y022813
X004051Y018054
X004130Y012665
X004327Y022263
X004366Y008457
X004366Y018959
X004681Y020729
X004759Y022774
X004799Y009951
X004995Y008614
X004995Y011131
X005310Y009204
X005507Y008221
X005703Y006097
X005782Y010109
X005782Y024977
X006254Y006490
X006608Y007513
X006805Y017464
X007041Y014711
X007080Y-002360
X007591Y021043
X007670Y020217
X007749Y022499
X008142Y023600
X008417Y024583
X008811Y006687
X009165Y008811
X009361Y018133
X009715Y015930
X009715Y016638
X009715Y018801
X009755Y017464
X009794Y014081
X009912Y023403
X010030Y006687
X010109Y012587
X010345Y009086
X010817Y024662
X010895Y009597
X011210Y023718
X011643Y018015
X011643Y019706
X011761Y011643
X011800Y024741
X011879Y020925
X012193Y016087
X012311Y014042
X012351Y018683
X012823Y012547
X014121Y023049
X014514Y017464
X014671Y018880
X014986Y016913
X015104Y023207
X015301Y018919
X015419Y018290
X015891Y020414
X016245Y014907
X016284Y016481
X016402Y023285
X016874Y020571
X017425Y013098
T2C0.0394F200S100
X-004445Y014340
X-004445Y015340
X-004405Y007906
X-002911Y007794
X-002911Y008794
X-002911Y009794
X-000017Y-002399
X000118Y013413
X000118Y014413
X000118Y015413
X000118Y016413
X000118Y017413
X000118Y018413
X000157Y009263
X000157Y009951
X000157Y010659
X000157Y011367
X000157Y012075
X000983Y-002399
X001770Y003579
X001809Y006018
X002281Y-002360
X002321Y004799
X002478Y003579
X002517Y006018
X003186Y003579
X003225Y006018
X003281Y-002360
X003321Y004799
X003894Y003579
X003933Y006018
X004546Y004799
X004602Y003579
X005310Y003579
X005467Y-002360
X005546Y004799
X006844Y-001590
X006844Y-000590
X007355Y000551
X007355Y001259
X007355Y001967
X007355Y002675
X007355Y003383
X007355Y004091
X007355Y004799
X007355Y005507
X007906Y010502
X007906Y011210
X007906Y011918
X007906Y012626
X008260Y013885
X008260Y014593
X008260Y015301
X008260Y016009
X008260Y016697
X008411Y-000991
X009024Y-002360
X008411Y007670
X009198Y-000991
X009198Y007670
X009440Y009696
X009440Y010384
X009440Y011092
X009440Y011800
X009440Y012508
X009985Y-000991
X010259Y-002439
X009985Y007670
X010773Y-000991
X011047Y-002439
X010773Y007670
X011479Y008889
X011560Y-000991
X011560Y007670
X011834Y-002439
X012266Y008889
X012348Y-000991
X012622Y-002439
X012348Y007670
X013053Y008889
X013135Y-000991
X013135Y007670
X013409Y-002439
X013841Y008889
X013922Y-000991
X014196Y-002439
X013922Y007670
X014628Y008889
X014710Y-000991
X014710Y007670
X014984Y-002439
X015416Y008889
X015497Y-000991
X015771Y-002439
X015497Y007670
X015997Y010120
X015997Y011120
X016203Y008889
X016559Y-002439
X016990Y008889
X017346Y-002439
X017779Y008889
X018329Y014505
X018329Y015505
X018329Y016505
X018329Y017505
X018329Y018505
X018329Y019505
X018329Y020505
X018329Y021505
X018329Y022505
X018329Y023505
X018329Y024505
X018565Y008889
T3C0.0413F200S100
X-004405Y008906
X-000433Y003973
X-000433Y004877
X000472Y003973
X000472Y004877
X004467Y-002360
X008024Y-002360
T4C0.0905F200S100
X-001534Y002124
X-001495Y006923
T5C0.1181F200S100
X000000Y000000
X000039Y023639
X018369Y010345
M30
